<svg width="840" height="360" viewBox="0 0 840 360" fill="none" xmlns="http://www.w3.org/2000/svg">
<path fill-rule="evenodd" clip-rule="evenodd" d="M0 101L23.3333 122C46.6667 144 93.3333 187 140 173C186.667 158 233.333 86 280 94C326.667 101 373.333 187 420 194C466.667 202 513.333 130 560 79C606.667 29 653.333 0 700 0C746.667 0 793.333 29 816.667 43L840 58V360H816.667C793.333 360 746.667 360 700 360C653.333 360 606.667 360 560 360C513.333 360 466.667 360 420 360C373.333 360 326.667 360 280 360C233.333 360 186.667 360 140 360C93.3333 360 46.6667 360 23.3333 360H0V101Z" fill="#C84361"/>
</svg>
