<svg xmlns="http://www.w3.org/2000/svg" viewBox="0 0 460 460" style="enable-background:new 0 0 460 460" xml:space="preserve"><path style="fill:#ff926e" d="M229.362 430c-37.114 0-72.041-14.43-98.346-40.632-26.312-26.209-40.878-61.094-41.015-98.228-.104-28.227 9.325-56.19 28.827-85.488C138.707 175.788 196.66 96.232 229.927 50.8l.073.1V0S122.947 145.323 93.854 189.029c-19.727 29.637-33.994 63.876-33.853 102.222.346 93.542 76.457 169.093 169.999 168.748V430h-.638z"/><path style="fill:#d5310e" d="M366.146 189.029C345.168 157.514 230 0 230 0v50.9c34.885 47.885 96.679 132.979 111.172 154.752 19.502 29.298 28.931 57.262 28.827 85.488-.137 37.137-14.702 72.022-41.012 98.23-26.302 26.2-61.231 40.63-98.345 40.63H230v29.999c93.542.345 169.654-75.206 169.999-168.748.141-38.346-14.126-72.585-33.853-102.222zm-247.318 16.623c-19.502 29.298-28.931 57.262-28.827 85.488.137 37.134 14.703 72.019 41.015 98.228C157.321 415.57 192.248 430 229.362 430H230v-30h-.638c-60.08 0-109.14-48.884-109.362-108.971l30-.111c.162 43.606 35.763 79.082 79.362 79.082H230V50.9l-.073-.1c-33.267 45.432-91.22 124.988-111.099 154.852z"/><path style="fill:#f46a1a" d="M230 400v30h.642l-.056-30zm0-310.606V370h.529z"/><path style="fill:#801b06" d="M230.529 370h.113v30h-.056l.057 30c37.114 0 72.042-14.43 98.345-40.629 26.31-26.208 40.875-61.094 41.012-98.23.104-28.227-9.325-56.19-28.827-85.488C326.679 183.879 264.885 98.785 230 50.9v38.494L230.529 370z"/><path style="fill:#fff" d="M230.639 400c.002 0 .002-30 .002-30h-1.279c-43.599 0-79.201-35.476-79.362-79.082l-30 .111C120.223 351.116 169.282 400 229.362 400h1.277z"/></svg>